<svg xmlns="http://www.w3.org/2000/svg" viewBox="0 0 100 100" width="100" height="100">
  <!-- Background -->
  <rect width="100" height="100" fill="#0078D4" rx="8"/>

  <!-- Grid representation -->
  <g fill="white" opacity="0.9">
    <!-- Grid lines -->
    <rect x="15" y="20" width="70" height="2"/>
    <rect x="15" y="35" width="70" height="2"/>
    <rect x="15" y="50" width="70" height="2"/>
    <rect x="15" y="65" width="70" height="2"/>
    <rect x="15" y="80" width="70" height="2"/>

    <rect x="15" y="18" width="2" height="64"/>
    <rect x="40" y="18" width="2" height="64"/>
    <rect x="65" y="18" width="2" height="64"/>
    <rect x="83" y="18" width="2" height="64"/>
  </g>

  <!-- Change indicator highlight -->
  <rect x="42" y="37" width="21" height="11" fill="#FFF4CE" opacity="0.8"/>

  <!-- Edit/Change icon (pencil) -->
  <g transform="translate(70, 70)">
    <path d="M8,16 L2,16 L2,10 L12,0 L18,6 L8,16 Z" fill="#FFB900" stroke="white" stroke-width="1"/>
    <line x1="12" y1="0" x2="18" y2="6" stroke="white" stroke-width="1"/>
  </g>
</svg>
